<svg id="Layer_1" data-name="Layer 1" xmlns="http://www.w3.org/2000/svg" viewBox="0 0 283.46 235.41"><defs><style>.cls-1{fill:#e71d73;}.cls-2{fill:#c41b62;}.cls-3{fill:#fff;}.cls-4{fill:#1793a4;}.cls-5{fill:#1e5766;}.cls-6{fill:#c6c500;}.cls-7{fill:#a3a400;}.cls-8{fill:#1d1d1b;}.cls-9{fill:#837c7b;}</style></defs><title>Artboard 1</title><path d="M59.16,27.34c.41-.55,1.81-.15,1.51.63-.22.59-.49.76-2.18,1.66"/><path class="cls-1" d="M69.5,35.14c.54,18.71-15.72,34.93-35,34.72C15.79,69.65-.29,53.88,0,34.49A35.08,35.08,0,0,1,35.74.26C53.83.7,69.87,16,69.5,35.14Z"/><path class="cls-2" d="M55.86,62.72,37.6,41.61l-20.82.06,21.5,28A34.78,34.78,0,0,0,55.86,62.72Z"/><path class="cls-2" d="M69.5,35.79c0-.26,0-1,0-1.24l-9.9-8-8.33,13.3L64,54A30.76,30.76,0,0,0,69.5,35.79Z"/><path class="cls-3" d="M9.8,27.87c2.43-.9,4,0,4.26,2.37S14.72,33,17,33.12a13.11,13.11,0,0,0,3.33-.39,1.92,1.92,0,0,0,1.78-2.38,2.14,2.14,0,0,1,1.79-2.47c1.06-.05,1.77.84,1.75,2.4a1.49,1.49,0,0,0,1.19,1.64,6.94,6.94,0,0,0,5.6-.54c.77-.41,1-.85.53-1.7a3.2,3.2,0,0,1,.65-4,1.73,1.73,0,0,1,2.89.16A3.41,3.41,0,0,1,37,29.43c-.37.86-.13,1.49.69,1.64a26.91,26.91,0,0,0,4.81.52,1.84,1.84,0,0,0,2-2.06,2.21,2.21,0,0,1,.6-1.39,1.47,1.47,0,0,1,1.2-.46,1.48,1.48,0,0,1,.83,1c.61,2.35,1.14,2.81,3.52,2.85,3.12.05,4.47-.93,5.72-3.88A3,3,0,0,1,58,26.22a2,2,0,0,1,1.66.32c.22.19,0,1.06-.17,1.53-1.89,4.16-3.8,8.32-5.8,12.42a3.39,3.39,0,0,1-1.76,1.62A53.59,53.59,0,0,1,19,42.94a4.57,4.57,0,0,1-3-2.45c-2.08-3.91-3.82-8-5.92-11.87A4,4,0,0,1,9.8,27.87Z"/><path class="cls-2" d="M55.56,31.35c.31.25-1.77,3.64-2.89,5.59-1.26,2.22-1.22.48-2.91.56a.94.94,0,0,0-.58,1c0,.42.17,1.1-.23,1-3.73-.48-7.45-1.09-11.17-1.62-1.15-.16-1.62-.46-.7-1.56.69-.84.31-1.65-.7-1.74a12.34,12.34,0,0,0-2.51-.07c-.58,0-1.37.88-1.06,1.39s4.42,1,.67,1.69a7.45,7.45,0,0,1-2.55.48c-2.28.26-4.55.57-6.83.73a44.21,44.21,0,0,1-6.3.13,3.25,3.25,0,0,1-2.71-3c0-1,.35-1.54,1.38-1.55s2.08,0,3.11,0c1.3.06,2.42.26,2.35,2.07,0,1,1,.85,1.64.74s1.8-.32,1.75-.87-.55-.65-.88-.72c-1.24-.25-1.89-1-1.6-2.19s1.37-1.06,2.32-1c1.69.17,3.36.4,5.05.48a5.74,5.74,0,0,0,2.07-.38c1.59-.55,2-1.42,1.62-3.09a5,5,0,0,1-.34-2.28,1.07,1.07,0,0,1,1.16-1.06c.75,0,1.07.34,1.11.82a7.16,7.16,0,0,1-.07,2.17c-.5,1.86-.12,2.71,1.72,3.14,2.59.62,5.61,1.14,7.58-.69.81-.76.77-1.09,1.5-.2,1,1.21,4.45,1.36,6.9.88a2.59,2.59,0,0,0,1-.45C54.62,31.7,55.26,31.1,55.56,31.35Zm-9,4.44A3.07,3.07,0,0,0,45,36c-.23.08-.53.4-.51.58a1,1,0,0,0,.49.72,28.62,28.62,0,0,0,3.28.71c.26,0,.7,0,.79-.38a1,1,0,0,0-.33-1A3.48,3.48,0,0,0,46.55,35.79Z"/><path class="cls-2" d="M24.62,29.9a2.4,2.4,0,0,1-1.2,1.59c-.26,0-.48-.49-.48-1.1s.58-1.26.84-1.26A.79.79,0,0,1,24.62,29.9Z"/><path class="cls-2" d="M46.38,29.22c0,.55-.74,1.09-.74,1.09a1.82,1.82,0,0,1-.06-1.09c.13-.4.23-.65.44-.65S46.38,28.68,46.38,29.22Z"/><path class="cls-2" d="M13.18,29.58c.06.6-.28,1.49-.54,1.49s-1.17-1.45-1.35-2-.2-.87.06-.87S13,28.22,13.18,29.58Z"/><path class="cls-2" d="M58.8,27.71c0,.61-.89,1.21-.89,1.21a1.93,1.93,0,0,1-.14-1.27c.16-.45.35-.67.61-.67S58.8,27.1,58.8,27.71Z"/><path class="cls-2" d="M46.38,41.59c0,.88-2.73.79-11.72,1.59a27.71,27.71,0,0,1-11.72-1.59L30.63,40S46.38,39.54,46.38,41.59Z"/><path class="cls-4" d="M69.5,200.68c.54,18.72-15.72,34.94-35,34.73C15.79,235.2-.29,219.43,0,200a35.06,35.06,0,0,1,35.74-34.23C53.83,166.24,69.87,181.51,69.5,200.68Z"/><path class="cls-5" d="M55.86,228.27,37.6,207.15l-20.82.07,21.5,28A35,35,0,0,0,55.86,228.27Z"/><path class="cls-5" d="M69.5,201.34c0-.26,0-1,0-1.24l-9.9-8-8.33,13.29L64,219.53A30.78,30.78,0,0,0,69.5,201.34Z"/><path class="cls-3" d="M9.8,193.42c2.43-.9,4,0,4.26,2.36s.66,2.73,2.94,2.89a13.11,13.11,0,0,0,3.33-.39,1.92,1.92,0,0,0,1.78-2.38,2.15,2.15,0,0,1,1.79-2.48c1.06,0,1.77.85,1.75,2.41a1.49,1.49,0,0,0,1.19,1.64,6.94,6.94,0,0,0,5.6-.54,1.07,1.07,0,0,0,.53-1.7,3.2,3.2,0,0,1,.65-4,1.73,1.73,0,0,1,2.89.15A3.43,3.43,0,0,1,37,195c-.37.86-.13,1.49.69,1.64a27.87,27.87,0,0,0,4.81.52,1.85,1.85,0,0,0,2-2.07,2.19,2.19,0,0,1,.6-1.38,1.47,1.47,0,0,1,1.2-.46,1.48,1.48,0,0,1,.83,1c.61,2.34,1.14,2.81,3.52,2.85,3.12,0,4.47-.93,5.72-3.89A3.07,3.07,0,0,1,58,191.77a1.92,1.92,0,0,1,1.66.32c.22.19,0,1.06-.17,1.53-1.89,4.16-3.8,8.31-5.8,12.42a3.43,3.43,0,0,1-1.76,1.62,53.51,53.51,0,0,1-32.92.82A4.53,4.53,0,0,1,16,206c-2.08-3.91-3.82-8-5.92-11.87A4,4,0,0,1,9.8,193.42Z"/><path class="cls-5" d="M55.56,196.9c.31.25-1.77,3.63-2.89,5.59-1.26,2.22-1.22.47-2.91.56a.93.93,0,0,0-.58,1c0,.42.17,1.1-.23,1.05-3.73-.49-7.45-1.09-11.17-1.62-1.15-.17-1.62-.46-.7-1.57.69-.84.31-1.64-.7-1.74a13.22,13.22,0,0,0-2.51-.06c-.58,0-1.37.88-1.06,1.39s4.42,1,.67,1.69a7.29,7.29,0,0,1-2.55.47c-2.28.27-4.55.58-6.83.74a44.21,44.21,0,0,1-6.3.13,3.25,3.25,0,0,1-2.71-3c0-1,.35-1.54,1.38-1.55s2.08,0,3.11,0c1.3.06,2.42.26,2.35,2.06,0,1.05,1,.86,1.64.75s1.8-.32,1.75-.87-.55-.66-.88-.72c-1.24-.26-1.89-1-1.6-2.19s1.37-1.06,2.32-1c1.69.17,3.36.39,5.05.48a5.75,5.75,0,0,0,2.07-.39c1.59-.55,2-1.41,1.62-3.08a5,5,0,0,1-.34-2.28,1.07,1.07,0,0,1,1.16-1.06c.75,0,1.07.34,1.11.82a7.17,7.17,0,0,1-.07,2.17c-.5,1.86-.12,2.7,1.72,3.14,2.59.61,5.61,1.14,7.58-.69.81-.77.77-1.09,1.5-.21,1,1.21,4.45,1.37,6.9.89a2.63,2.63,0,0,0,1-.46C54.62,197.25,55.26,196.65,55.56,196.9Zm-9,4.44a3.07,3.07,0,0,0-1.51.25c-.23.08-.53.4-.51.58a1,1,0,0,0,.49.72,30.92,30.92,0,0,0,3.28.71c.26,0,.7,0,.79-.38a1,1,0,0,0-.33-1A3.48,3.48,0,0,0,46.55,201.34Z"/><path class="cls-5" d="M24.62,195.44a2.4,2.4,0,0,1-1.2,1.6c-.26,0-.48-.49-.48-1.1s.58-1.26.84-1.26A.79.79,0,0,1,24.62,195.44Z"/><path class="cls-5" d="M46.38,194.77c0,.55-.74,1.09-.74,1.09a1.82,1.82,0,0,1-.06-1.09c.13-.41.23-.65.44-.65S46.38,194.22,46.38,194.77Z"/><path class="cls-5" d="M13.18,195.13c.06.6-.28,1.49-.54,1.49s-1.17-1.45-1.35-2-.2-.87.06-.87S13,193.77,13.18,195.13Z"/><path class="cls-5" d="M58.8,193.26c0,.61-.89,1.21-.89,1.21a1.93,1.93,0,0,1-.14-1.27c.16-.45.35-.67.61-.67S58.8,192.65,58.8,193.26Z"/><path class="cls-5" d="M46.38,207.14c0,.88-2.73.78-11.72,1.58a27.62,27.62,0,0,1-11.72-1.58l7.69-1.63S46.38,205.09,46.38,207.14Z"/><path class="cls-6" d="M69.5,117.91c.54,18.72-15.72,34.94-35,34.72-18.73-.21-34.81-16-34.52-35.36A35.06,35.06,0,0,1,35.74,83C53.83,83.47,69.87,98.74,69.5,117.91Z"/><path class="cls-7" d="M55.86,145.5,37.6,124.38l-20.82.06,21.5,28A34.86,34.86,0,0,0,55.86,145.5Z"/><path class="cls-7" d="M69.5,118.56c0-.25,0-1,0-1.23l-9.9-8-8.33,13.29L64,136.75A30.76,30.76,0,0,0,69.5,118.56Z"/><path class="cls-3" d="M9.8,110.64c2.43-.9,4,0,4.26,2.37s.66,2.72,2.94,2.88a12.66,12.66,0,0,0,3.33-.38,1.93,1.93,0,0,0,1.78-2.38,2.14,2.14,0,0,1,1.79-2.48c1.06-.05,1.77.85,1.75,2.41a1.47,1.47,0,0,0,1.19,1.63,6.86,6.86,0,0,0,5.6-.54c.77-.4,1-.85.53-1.69a3.21,3.21,0,0,1,.65-4,1.73,1.73,0,0,1,2.89.16,3.42,3.42,0,0,1,.48,3.6c-.37.86-.13,1.49.69,1.63a26,26,0,0,0,4.81.52,1.84,1.84,0,0,0,2-2.06,2.21,2.21,0,0,1,.6-1.39,1.51,1.51,0,0,1,1.2-.46,1.53,1.53,0,0,1,.83,1c.61,2.34,1.14,2.81,3.52,2.85,3.12,0,4.47-.93,5.72-3.89A3,3,0,0,1,58,109a2,2,0,0,1,1.66.33c.22.19,0,1.06-.17,1.52-1.89,4.16-3.8,8.32-5.8,12.43a3.41,3.41,0,0,1-1.76,1.61,53.51,53.51,0,0,1-32.92.83,4.54,4.54,0,0,1-3-2.45c-2.08-3.9-3.82-8-5.92-11.86A3.87,3.87,0,0,1,9.8,110.64Z"/><path class="cls-7" d="M55.56,114.13c.31.25-1.77,3.63-2.89,5.58-1.26,2.22-1.22.48-2.91.56a.94.94,0,0,0-.58,1c0,.41.17,1.1-.23,1-3.73-.48-7.45-1.09-11.17-1.62-1.15-.16-1.62-.45-.7-1.56.69-.84.31-1.65-.7-1.74a12.43,12.43,0,0,0-2.51-.06c-.58,0-1.37.88-1.06,1.39s4.42,1,.67,1.68a7.2,7.2,0,0,1-2.55.48c-2.28.27-4.55.58-6.83.74a44.21,44.21,0,0,1-6.3.12,3.25,3.25,0,0,1-2.71-3c0-1,.35-1.54,1.38-1.54s2.08,0,3.11,0c1.3.07,2.42.27,2.35,2.07,0,1.05,1,.86,1.64.74s1.8-.31,1.75-.86-.55-.66-.88-.73c-1.24-.25-1.89-1-1.6-2.19s1.37-1,2.32-1c1.69.17,3.36.4,5.05.49a5.75,5.75,0,0,0,2.07-.39c1.59-.55,2-1.41,1.62-3.08a5,5,0,0,1-.34-2.28,1.08,1.08,0,0,1,1.16-1.07c.75,0,1.07.35,1.11.83a7.18,7.18,0,0,1-.07,2.17c-.5,1.85-.12,2.7,1.72,3.14,2.59.61,5.61,1.14,7.58-.7.81-.76.77-1.09,1.5-.2,1,1.21,4.45,1.37,6.9.89a2.79,2.79,0,0,0,1-.46C54.62,114.47,55.26,113.87,55.56,114.13Zm-9,4.43a2.92,2.92,0,0,0-1.51.26c-.23.08-.53.39-.51.57a1,1,0,0,0,.49.73c1.08.29,2.18.53,3.28.71.26,0,.7,0,.79-.39a1,1,0,0,0-.33-1A3.48,3.48,0,0,0,46.55,118.56Z"/><path class="cls-7" d="M24.62,112.67a2.4,2.4,0,0,1-1.2,1.6c-.26,0-.48-.5-.48-1.1s.58-1.27.84-1.27A.79.79,0,0,1,24.62,112.67Z"/><path class="cls-7" d="M46.38,112c0,.55-.74,1.08-.74,1.08a1.78,1.78,0,0,1-.06-1.08c.13-.41.23-.66.44-.66S46.38,111.45,46.38,112Z"/><path class="cls-7" d="M13.18,112.35c.06.61-.28,1.5-.54,1.5s-1.17-1.46-1.35-2-.2-.87.06-.87S13,111,13.18,112.35Z"/><path class="cls-7" d="M58.8,110.48c0,.61-.89,1.21-.89,1.21a1.89,1.89,0,0,1-.14-1.26c.16-.45.35-.67.61-.67S58.8,109.87,58.8,110.48Z"/><path class="cls-7" d="M46.38,124.37c0,.87-2.73.78-11.72,1.58a27.62,27.62,0,0,1-11.72-1.58l7.69-1.63S46.38,122.32,46.38,124.37Z"/><path class="cls-8" d="M107.82,58.21a11.46,11.46,0,0,1-1.36,6,12.66,12.66,0,0,1-3.19,3.65q-2.59,2.05-7.29,2H82.91V45.66H93a27.05,27.05,0,0,1,3.89.24,16.42,16.42,0,0,1,2.91.66,12.37,12.37,0,0,1,2.2,1,11.47,11.47,0,0,1,1.63,1.15,11,11,0,0,1,2.17,2.39,12,12,0,0,1,1.49,3.2A13.81,13.81,0,0,1,107.82,58.21Zm-7.43-.31a8.12,8.12,0,0,0-1.13-4.61,5.48,5.48,0,0,0-2.71-2.21,9.66,9.66,0,0,0-3.22-.56H90.22V64.87h3.11a8.89,8.89,0,0,0,5-1.36Q100.39,62.15,100.39,57.9Z"/><path class="cls-9" d="M114.51,45.47V69.89h-1.89V45.47Z"/><path class="cls-9" d="M132.52,45.15a12.71,12.71,0,0,1,9.19,3.65,12.34,12.34,0,0,1,0,17.76,13.37,13.37,0,0,1-18.34,0,12.39,12.39,0,0,1,0-17.76A12.64,12.64,0,0,1,132.52,45.15Zm.07,23.3a10.48,10.48,0,0,0,7.7-3.12,10.9,10.9,0,0,0,0-15.31,10.48,10.48,0,0,0-7.7-3.12A10.64,10.64,0,0,0,124.84,50a10.83,10.83,0,0,0,0,15.31A10.64,10.64,0,0,0,132.59,68.45Z"/><path class="cls-9" d="M171,47.2v2.06a18.54,18.54,0,0,0-8.71-2.36,10.26,10.26,0,0,0-7.6,3.09,10.56,10.56,0,0,0-3.06,7.73,10.36,10.36,0,0,0,3.07,7.71,10.73,10.73,0,0,0,7.85,3,18.65,18.65,0,0,0,8.69-2.5v2a18.33,18.33,0,0,1-8.65,2.29,12.86,12.86,0,0,1-9.29-3.57,12.51,12.51,0,0,1,.08-17.88,12.65,12.65,0,0,1,9-3.6A20.52,20.52,0,0,1,171,47.2Z"/><path class="cls-9" d="M188.77,45.47V47H177.33v9.77h11.14V58.4H177.33v9.91h11.72v1.58h-13.6V45.47Z"/><path class="cls-9" d="M205,46.69v2.08a11.25,11.25,0,0,0-5.47-1.87,5.29,5.29,0,0,0-3.68,1.34,4.3,4.3,0,0,0-1.48,3.31,4.09,4.09,0,0,0,.88,2.55,8.41,8.41,0,0,0,3.65,2.19A33.56,33.56,0,0,1,202.94,58a6.22,6.22,0,0,1,2.17,2,6.13,6.13,0,0,1,.89,3.45,6.26,6.26,0,0,1-2.07,4.75,7.07,7.07,0,0,1-5,1.94,11.36,11.36,0,0,1-6.26-2.13V65.85c2.37,1.74,4.42,2.6,6.15,2.6a5.19,5.19,0,0,0,3.67-1.4,4.74,4.74,0,0,0,.57-6.26,8.45,8.45,0,0,0-3.76-2.34,36.57,36.57,0,0,1-4.05-1.75,5.82,5.82,0,0,1-2.06-1.9,5.42,5.42,0,0,1-.85-3.17,6,6,0,0,1,2.06-4.58,7.07,7.07,0,0,1,5-1.9A11.63,11.63,0,0,1,205,46.69Z"/><path class="cls-9" d="M224.19,45.47V47H212.76v9.77h11.13V58.4H212.76v9.91h11.71v1.58h-13.6V45.47Z"/><path class="cls-9" d="M251.29,45.15a12.75,12.75,0,0,1,9.19,3.65,12.37,12.37,0,0,1,0,17.76,13.37,13.37,0,0,1-18.34,0,12.39,12.39,0,0,1,0-17.76A12.64,12.64,0,0,1,251.29,45.15Zm.07,23.3a10.5,10.5,0,0,0,7.7-3.12,10.9,10.9,0,0,0,0-15.31,10.5,10.5,0,0,0-7.7-3.12A10.63,10.63,0,0,0,243.61,50a10.83,10.83,0,0,0,0,15.31A10.63,10.63,0,0,0,251.36,68.45Z"/><path class="cls-9" d="M282,45.47V47H271.27v9.28h9.63V57.9h-9.63v12h-1.89V45.47Z"/><path class="cls-8" d="M105,103a6.34,6.34,0,0,1-2.14,5,8.86,8.86,0,0,1-6,1.87h-14V85.63H94.62a16,16,0,0,1,4,.44,8.08,8.08,0,0,1,2.72,1.19,5,5,0,0,1,1.54,1.8,5.12,5.12,0,0,1,.5,2.25,5.74,5.74,0,0,1-.52,2.46,6,6,0,0,1-1.3,1.85,4.89,4.89,0,0,1-1.57,1,9.51,9.51,0,0,1,3.79,2.48A5.69,5.69,0,0,1,105,103ZM96.51,92.6a2.34,2.34,0,0,0-1.16-2.32,8.34,8.34,0,0,0-3.6-.58H90.22v5.81h1.57a8.4,8.4,0,0,0,3.61-.58A2.38,2.38,0,0,0,96.51,92.6Zm1.19,10.09c0-2.07-1.51-3.11-4.51-3.11h-3v6.2h3C96.19,105.78,97.7,104.75,97.7,102.69Z"/><path class="cls-9" d="M110.05,85.44h6.26a9.31,9.31,0,0,1,6,1.7,5.64,5.64,0,0,1,2.08,4.61q0,4.23-4.65,5.94,1.22.59,3.25,3.72l5.53,8.45h-2.24l-4.25-6.7A16.35,16.35,0,0,0,118.72,99a6,6,0,0,0-3.48-.83h-3.3v11.71h-1.89ZM111.94,87v9.56h4a7.62,7.62,0,0,0,4.73-1.25,4.59,4.59,0,0,0,0-7A7.8,7.8,0,0,0,115.92,87Z"/><path class="cls-9" d="M133,85.44v24.42h-1.89V85.44Z"/><path class="cls-9" d="M150.58,86.66v2.08a11.28,11.28,0,0,0-5.47-1.87,5.28,5.28,0,0,0-3.68,1.34A4.26,4.26,0,0,0,140,91.52a4.08,4.08,0,0,0,.87,2.55,8.46,8.46,0,0,0,3.66,2.19A34,34,0,0,1,148.53,98a6.22,6.22,0,0,1,2.17,2,6.13,6.13,0,0,1,.89,3.45,6.29,6.29,0,0,1-2.06,4.75,7.07,7.07,0,0,1-5,1.94,11.33,11.33,0,0,1-6.25-2.13v-2.22c2.36,1.74,4.41,2.6,6.15,2.6a5.18,5.18,0,0,0,3.66-1.4,4.71,4.71,0,0,0,.57-6.26,8.45,8.45,0,0,0-3.76-2.34,37.08,37.08,0,0,1-4-1.75,6,6,0,0,1-2.07-1.89,5.55,5.55,0,0,1-.85-3.18A6,6,0,0,1,140,87a7,7,0,0,1,5-1.9A11.7,11.7,0,0,1,150.58,86.66Z"/><path class="cls-9" d="M174,85.44V87H164.8v22.85h-1.9V87h-9.16V85.44Z"/><path class="cls-9" d="M186.68,85.12a12.73,12.73,0,0,1,9.19,3.65,12.37,12.37,0,0,1,0,17.76,13.37,13.37,0,0,1-18.34,0,12.39,12.39,0,0,1,0-17.76A12.64,12.64,0,0,1,186.68,85.12Zm.07,23.3a10.5,10.5,0,0,0,7.7-3.12,10.9,10.9,0,0,0,0-15.31,10.5,10.5,0,0,0-7.7-3.12A10.63,10.63,0,0,0,179,90a10.83,10.83,0,0,0,0,15.31A10.63,10.63,0,0,0,186.75,108.42Z"/><path class="cls-9" d="M206.69,85.44v22.84h12.08v1.58h-14V85.44Z"/><path class="cls-8" d="M109.51,149.83H102l-2-4.91H89.53l-2,4.91H80L90.76,125.6h8.07ZM98.38,140.7l-3.55-8.84-3.58,8.84Z"/><path class="cls-9" d="M133.39,127.14v2.06a18.54,18.54,0,0,0-8.71-2.36,10.26,10.26,0,0,0-7.6,3.09,10.56,10.56,0,0,0-3.06,7.73,10.36,10.36,0,0,0,3.07,7.71,10.73,10.73,0,0,0,7.85,3,18.65,18.65,0,0,0,8.69-2.5v2a18.33,18.33,0,0,1-8.65,2.29,12.86,12.86,0,0,1-9.29-3.57,12.51,12.51,0,0,1,.08-17.88,12.65,12.65,0,0,1,9-3.6A20.52,20.52,0,0,1,133.39,127.14Z"/><path class="cls-9" d="M149.06,125.23l11.29,24.6h-2l-3.86-8.45H142.57l-3.85,8.45h-2L148,125.23Zm4.73,14.58-5.26-11.5-5.25,11.5Z"/><path class="cls-9" d="M163.84,125.41h8.55q6.5,0,9.9,3.41a11.9,11.9,0,0,1,3.42,8.81,12,12,0,0,1-3.38,8.75q-3.39,3.45-9.61,3.45h-8.88Zm1.89,1.57v21.27h6.89a11.18,11.18,0,0,0,7.89-2.91,10,10,0,0,0,3.16-7.71,10.16,10.16,0,0,0-3.11-7.68,11.22,11.22,0,0,0-8.06-3Z"/><path class="cls-9" d="M204.24,125.41V127H192.8v9.77h11.14v1.59H192.8v9.91h11.72v1.58h-13.6V125.41Z"/><path class="cls-9" d="M220.12,136.75l9.28-11.34h1.91v24.42H229.4V128.17l-9.29,11.41-9.32-11.41v21.66H208.9V125.41h1.89Z"/><path class="cls-9" d="M239.31,125.41v24.42h-1.89V125.41Z"/><path class="cls-9" d="M258.79,125.41V127H247.36v9.77H258.5v1.59H247.36v9.91h11.71v1.58h-13.6V125.41Z"/><path class="cls-9" d="M275,126.63v2.08a11.25,11.25,0,0,0-5.47-1.87,5.28,5.28,0,0,0-3.68,1.34,4.26,4.26,0,0,0-1.48,3.31,4,4,0,0,0,.88,2.55,8.41,8.41,0,0,0,3.65,2.19A35.06,35.06,0,0,1,273,138a5.84,5.84,0,0,1,3,5.47A6.25,6.25,0,0,1,274,148.2a7,7,0,0,1-5,1.94,11.34,11.34,0,0,1-6.26-2.13v-2.22c2.37,1.74,4.42,2.6,6.15,2.6a5.1,5.1,0,0,0,3.66-1.4,4.71,4.71,0,0,0,.57-6.26,8.4,8.4,0,0,0-3.75-2.34,36.57,36.57,0,0,1-4.05-1.75,5.88,5.88,0,0,1-2.06-1.89,5.48,5.48,0,0,1-.85-3.18A6,6,0,0,1,264.4,127a7.1,7.1,0,0,1,5-1.9A11.67,11.67,0,0,1,275,126.63Z"/><path class="cls-8" d="M106.14,171.46H97.26V189.8H90V171.46H81.09v-5.89h25Z"/><path class="cls-9" d="M110.73,165.38H117a9.3,9.3,0,0,1,6,1.7,5.64,5.64,0,0,1,2.08,4.61q0,4.23-4.65,5.94,1.21.59,3.25,3.72l5.53,8.45H127l-4.25-6.7a16.35,16.35,0,0,0-3.32-4.18,6,6,0,0,0-3.48-.83h-3.3V189.8h-1.89Zm1.89,1.57v9.56h4.06a7.61,7.61,0,0,0,4.72-1.25,4.59,4.59,0,0,0,0-7,7.79,7.79,0,0,0-4.77-1.26Z"/><path class="cls-9" d="M149.8,165.38h1.88V178.7q0,5.48-2.85,8.44a10.67,10.67,0,0,1-14.73,0,11.07,11.07,0,0,1-2.85-8.05V165.38h1.9v13.68a9.6,9.6,0,0,0,2.32,6.84,8.52,8.52,0,0,0,12,0c1.54-1.66,2.32-4,2.32-7.07Z"/><path class="cls-9" d="M168.81,166.6v2.08a11.28,11.28,0,0,0-5.47-1.87,5.28,5.28,0,0,0-3.68,1.34,4.26,4.26,0,0,0-1.48,3.31,4.08,4.08,0,0,0,.87,2.55,8.53,8.53,0,0,0,3.66,2.19,34,34,0,0,1,4,1.75,6.13,6.13,0,0,1,2.17,2,6.05,6.05,0,0,1,.89,3.45,6.29,6.29,0,0,1-2.06,4.75,7,7,0,0,1-5,1.94,11.34,11.34,0,0,1-6.26-2.13v-2.22c2.36,1.74,4.41,2.6,6.15,2.6a5.1,5.1,0,0,0,3.66-1.4,4.71,4.71,0,0,0,.57-6.26,8.45,8.45,0,0,0-3.76-2.34,37.08,37.08,0,0,1-4-1.75,6,6,0,0,1-2.07-1.89,5.55,5.55,0,0,1-.84-3.18A6,6,0,0,1,158.2,167a7.09,7.09,0,0,1,5-1.9A11.7,11.7,0,0,1,168.81,166.6Z"/><path class="cls-9" d="M192.19,165.38V167H183V189.8h-1.9V167H172v-1.57Z"/><path class="cls-9" d="M82.48,200.9l-.2,1.45h-1l.18-1.29A2.94,2.94,0,0,1,82,199.8a1.72,1.72,0,0,1,.93-.75l-.06.48a1.89,1.89,0,0,0-.7,1.37Z"/><path class="cls-9" d="M85.78,199.05l-1.47,10.39h5l-.1.75H83.45L85,199.05Z"/><path class="cls-9" d="M96.07,208.76v.76a3.72,3.72,0,0,1-2.3.82,3,3,0,0,1-2.36-1,3.63,3.63,0,0,1-.89-2.56,4.39,4.39,0,0,1,1-2.91,3,3,0,0,1,2.41-1.19,2.38,2.38,0,0,1,1.9.84,3.38,3.38,0,0,1,.71,2.26c0,.17,0,.36,0,.56H91.32c0,.19,0,.35,0,.47a3,3,0,0,0,.69,2,2.21,2.21,0,0,0,1.81.84A3.68,3.68,0,0,0,96.07,208.76Zm-4.63-3h4.37a2.43,2.43,0,0,0-.48-1.72,1.77,1.77,0,0,0-1.43-.63,2.32,2.32,0,0,0-1.56.67A2.84,2.84,0,0,0,91.44,205.73Z"/><path class="cls-9" d="M102.17,202.86l-.08.54h-1.94l-.68,3.52a15.07,15.07,0,0,0-.19,1.57,1.34,1.34,0,0,0,.33,1,1.1,1.1,0,0,0,.83.34,2.18,2.18,0,0,0,1.4-.64v.67a2.74,2.74,0,0,1-1.52.51,1.66,1.66,0,0,1-1.3-.55,1.88,1.88,0,0,1-.51-1.34,8.68,8.68,0,0,1,.21-1.64l.7-3.41H98l.08-.54H99.5l.33-1.68h.72l-.35,1.68Z"/><path class="cls-9" d="M113.56,202.86,107.75,214H107l2-3.85-1.39-7.24h.72l1.19,6.25,3.27-6.25Z"/><path class="cls-9" d="M117.49,202.71a2.32,2.32,0,0,1,1.87.83,3.34,3.34,0,0,1,.7,2.24,5,5,0,0,1-1,3.3,3.11,3.11,0,0,1-2.46,1.26,2.31,2.31,0,0,1-1.82-.83,3.36,3.36,0,0,1-.71-2.26,5.23,5.23,0,0,1,1-3.27A3,3,0,0,1,117.49,202.71Zm-.95,7a2.36,2.36,0,0,0,1.95-1.13,4.6,4.6,0,0,0,.81-2.76,2.78,2.78,0,0,0-.51-1.75,1.61,1.61,0,0,0-1.34-.65,2.23,2.23,0,0,0-1.92,1.12,5,5,0,0,0-.72,2.77,2.91,2.91,0,0,0,.46,1.75A1.5,1.5,0,0,0,116.54,209.67Z"/><path class="cls-9" d="M128,202.86l-1,7.33h-.71l.2-1.3,0,0a4,4,0,0,1-2.85,1.47,1.81,1.81,0,0,1-1.28-.5,1.73,1.73,0,0,1-.52-1.33,2.55,2.55,0,0,1,0-.39l.73-5.26h.72l-.73,5.23a2.83,2.83,0,0,0,0,.29,1.28,1.28,0,0,0,.35.94,1.33,1.33,0,0,0,1,.35,4,4,0,0,0,2.76-1.74l.72-5.07Z"/><path class="cls-9" d="M131,202.86l-.28,2,0,0a9.51,9.51,0,0,1,1.39-1.71,1.73,1.73,0,0,1,1.18-.48,1.8,1.8,0,0,1,.73.15v.72a1.83,1.83,0,0,0-.76-.2c-.5,0-1.08.39-1.72,1.15a7.72,7.72,0,0,0-1,1.3l-.61,4.36h-.73l1-7.33Z"/><path class="cls-9" d="M141,199.05l-1.56,11.14h-.73l1.57-11.14Z"/><path class="cls-9" d="M143.59,202.86l-1,7.33h-.73l1-7.33Zm.42-3.17-.18,1.21h-.72l.18-1.21Z"/><path class="cls-9" d="M151.79,202.71l-.09.54h-2.06v0a2.15,2.15,0,0,1,1.08,2,2.8,2.8,0,0,1-.48,1.61,2.49,2.49,0,0,1-1.07,1,6.79,6.79,0,0,1-1.6.39,3.75,3.75,0,0,0-1.28.32.56.56,0,0,0-.29.45.4.4,0,0,0,.27.39,16.18,16.18,0,0,0,1.72.48,5,5,0,0,1,2,.82,1.49,1.49,0,0,1,.55,1.15,1.81,1.81,0,0,1-.86,1.5,4.09,4.09,0,0,1-2.41.61,3.84,3.84,0,0,1-2.18-.52,1.52,1.52,0,0,1-.78-1.31c0-.86.84-1.49,2.52-1.91v0c-1-.2-1.51-.57-1.51-1.11s.5-.92,1.51-1.1v0a2.25,2.25,0,0,1-1.57-2.32,2.74,2.74,0,0,1,.89-2.05,3,3,0,0,1,2.15-.86Zm-1.95,9.18q0-.7-1.05-1a7,7,0,0,0-1.24-.35A4,4,0,0,0,146,211a1.44,1.44,0,0,0-1,1.27,1,1,0,0,0,.58.85,3.37,3.37,0,0,0,1.59.32,3.85,3.85,0,0,0,2-.42A1.25,1.25,0,0,0,149.84,211.89Zm-1.71-8.57a2.06,2.06,0,0,0-1.54.69,2.3,2.3,0,0,0-.66,1.65,2,2,0,0,0,.5,1.36,1.63,1.63,0,0,0,1.3.57,2,2,0,0,0,1.68-.78,2.68,2.68,0,0,0,.59-1.63,1.76,1.76,0,0,0-.57-1.34A1.84,1.84,0,0,0,148.13,203.32Z"/><path class="cls-9" d="M154.34,199.05l-.75,5.31,0,0a4.21,4.21,0,0,1,2.89-1.67,1.82,1.82,0,0,1,1.36.53,1.94,1.94,0,0,1,.52,1.39,2.4,2.4,0,0,1,0,.37l-.73,5.19h-.73l.7-5.11a2.51,2.51,0,0,0,0-.37,1.34,1.34,0,0,0-.34-1,1.25,1.25,0,0,0-.89-.34c-.9,0-1.88.66-3,2l-.68,4.83h-.71l1.57-11.14Z"/><path class="cls-9" d="M164.11,202.86l-.08.54h-1.94l-.67,3.52a13.54,13.54,0,0,0-.2,1.57,1.34,1.34,0,0,0,.33,1,1.12,1.12,0,0,0,.83.34,2.22,2.22,0,0,0,1.41-.64v.67a2.79,2.79,0,0,1-1.53.51,1.68,1.68,0,0,1-1.3-.55,1.88,1.88,0,0,1-.51-1.34,8.06,8.06,0,0,1,.22-1.64l.7-3.41h-1.46l.09-.54h1.44l.34-1.68h.71l-.34,1.68Z"/><path class="cls-9" d="M174.43,203.4v.8a4.53,4.53,0,0,0-2.38-.82,1.8,1.8,0,0,0-1.07.31.89.89,0,0,0-.44.74,1,1,0,0,0,.25.62,6.64,6.64,0,0,0,1.41,1,5.16,5.16,0,0,1,1.52,1.25,1.88,1.88,0,0,1,.37,1.08,1.69,1.69,0,0,1-.7,1.36,2.61,2.61,0,0,1-1.7.57,3.75,3.75,0,0,1-2.47-1l.23-.77a3.06,3.06,0,0,0,2.27,1.06,1.87,1.87,0,0,0,1.15-.34,1,1,0,0,0,.45-.84,1.22,1.22,0,0,0-.27-.71,6.27,6.27,0,0,0-1.41-1.1,5.58,5.58,0,0,1-1.46-1.21,1.55,1.55,0,0,1,.34-2.23,2.63,2.63,0,0,1,1.67-.53A4.11,4.11,0,0,1,174.43,203.4Z"/><path class="cls-9" d="M177.71,199.05l-.75,5.31,0,0a4.19,4.19,0,0,1,2.89-1.67,1.82,1.82,0,0,1,1.36.53,1.94,1.94,0,0,1,.52,1.39,2.4,2.4,0,0,1,0,.37l-.73,5.19h-.73l.7-5.11a2.51,2.51,0,0,0,0-.37,1.34,1.34,0,0,0-.34-1,1.25,1.25,0,0,0-.89-.34q-1.35,0-3,2l-.68,4.83h-.71L177,199.05Z"/><path class="cls-9" d="M185,202.86l-1,7.33h-.72l1-7.33Zm.43-3.17-.19,1.21h-.71l.18-1.21Z"/><path class="cls-9" d="M188.09,202.86l-.17,1.22.05,0a4,4,0,0,1,2.79-1.39,1.67,1.67,0,0,1,1.32.59,2.17,2.17,0,0,1,.52,1.49c0,.12,0,.25,0,.37l-.71,5h-.72l.69-4.93a3.34,3.34,0,0,0,0-.43,1.53,1.53,0,0,0-.35-1.07,1.24,1.24,0,0,0-1-.38,4.2,4.2,0,0,0-2.77,1.62l-.73,5.19h-.71l1-7.33Z"/><path class="cls-9" d="M199.81,208.76v.76a3.73,3.73,0,0,1-2.31.82,3,3,0,0,1-2.35-1,3.63,3.63,0,0,1-.89-2.56,4.39,4.39,0,0,1,1-2.91,3,3,0,0,1,2.41-1.19,2.34,2.34,0,0,1,1.89.84,3.33,3.33,0,0,1,.71,2.26c0,.17,0,.36,0,.56h-5.17a3.13,3.13,0,0,0,.65,2.46,2.21,2.21,0,0,0,1.81.84A3.7,3.7,0,0,0,199.81,208.76Zm-4.63-3h4.37a2.43,2.43,0,0,0-.48-1.72,1.77,1.77,0,0,0-1.43-.63,2.32,2.32,0,0,0-1.56.67A2.84,2.84,0,0,0,195.18,205.73Z"/><path class="cls-9" d="M203,200.51l.2-1.46h1l-.19,1.29a2.94,2.94,0,0,1-.49,1.26,1.63,1.63,0,0,1-.93.75l.07-.47a2,2,0,0,0,.7-1.37Z"/><path class="cls-9" d="M213.86,198.91h.95q-4.2,4.11-4.2,8.9a12.84,12.84,0,0,0,1.6,6.14h-.8a13.4,13.4,0,0,1-1.15-3.09,14,14,0,0,1-.41-3.19Q209.85,203,213.86,198.91Z"/><path class="cls-9" d="M214.73,210.19h-.81l3.7-11.14h.65l2,9.38,5-9.38H226v11.14h-.81v-9.38l-5,9.38h-.28l-2-9.46Z"/><path class="cls-9" d="M234.72,202.86l-1,7.33H233l.13-.86a3.85,3.85,0,0,1-2.53,1,2.33,2.33,0,0,1-1.83-.83,3.13,3.13,0,0,1-.73-2.11,4.43,4.43,0,0,1,1.44-3.3,5.2,5.2,0,0,1,3.78-1.39A6.8,6.8,0,0,1,234.72,202.86Zm-1.51,5.63.72-5.14a4,4,0,0,0-.9-.1,4.18,4.18,0,0,0-3,1.21,4,4,0,0,0-1.26,3,2.42,2.42,0,0,0,.52,1.63,1.73,1.73,0,0,0,1.39.61A3.77,3.77,0,0,0,233.21,208.49Z"/><path class="cls-9" d="M240.25,202.86l-.08.54h-1.94l-.67,3.52a13.54,13.54,0,0,0-.2,1.57,1.34,1.34,0,0,0,.33,1,1.12,1.12,0,0,0,.83.34,2.22,2.22,0,0,0,1.41-.64v.67a2.79,2.79,0,0,1-1.53.51,1.68,1.68,0,0,1-1.3-.55,1.88,1.88,0,0,1-.51-1.34,8.06,8.06,0,0,1,.22-1.64l.7-3.41h-1.46l.09-.54h1.44l.34-1.68h.71l-.34,1.68Z"/><path class="cls-9" d="M245.08,202.86l-.08.54h-1.94l-.67,3.52c-.13.85-.2,1.38-.2,1.57a1.34,1.34,0,0,0,.33,1,1.12,1.12,0,0,0,.83.34,2.2,2.2,0,0,0,1.41-.64v.67a2.79,2.79,0,0,1-1.53.51,1.68,1.68,0,0,1-1.3-.55,1.88,1.88,0,0,1-.51-1.34,8.06,8.06,0,0,1,.22-1.64l.7-3.41h-1.46l.09-.54h1.44l.34-1.68h.71l-.34,1.68Z"/><path class="cls-9" d="M257.75,199.05l-.09.69h-4l-.49,3.5a4.38,4.38,0,0,1,.76-.07,3,3,0,0,1,2.28.91,3.21,3.21,0,0,1,.9,2.34,3.75,3.75,0,0,1-1.16,2.77,3.83,3.83,0,0,1-2.81,1.15,4.38,4.38,0,0,1-2.76-.93l.31-.6a4,4,0,0,0,2.43.84,3.07,3.07,0,0,0,2.26-.94,3.11,3.11,0,0,0,.95-2.27,2.49,2.49,0,0,0-.74-1.88,2.66,2.66,0,0,0-1.94-.71,4.88,4.88,0,0,0-1.33.2l.71-5Z"/><path class="cls-9" d="M259,210.19l.19-1.45h1l-.19,1.45Zm.86-5.87.2-1.46h1l-.2,1.46Z"/><path class="cls-9" d="M267.26,199.05l-1.55,11.14H265l1.54-11.14Z"/><path class="cls-9" d="M278.26,199.05l-.1.69h-4l-.49,3.5a4.38,4.38,0,0,1,.76-.07,3,3,0,0,1,2.28.91,3.21,3.21,0,0,1,.9,2.34,3.71,3.71,0,0,1-1.16,2.77,3.83,3.83,0,0,1-2.81,1.15,4.38,4.38,0,0,1-2.76-.93l.31-.6a4.07,4.07,0,0,0,2.43.84,3.07,3.07,0,0,0,2.26-.94,3.11,3.11,0,0,0,.95-2.27,2.52,2.52,0,0,0-.73-1.88,2.7,2.7,0,0,0-1.95-.71,4.75,4.75,0,0,0-1.32.2l.7-5Z"/><path class="cls-9" d="M278.81,214h-.95q4.2-4.11,4.2-8.9a12.73,12.73,0,0,0-1.6-6.14h.8a14.48,14.48,0,0,1,1.57,6.28Q282.83,209.83,278.81,214Z"/></svg>